<?xml version="1.0" encoding="utf-8"?>
<!-- Generator: Adobe Illustrator 24.0.1, SVG Export Plug-In . SVG Version: 6.00 Build 0)  -->
<svg version="1.1" id="Layer_1" xmlns="http://www.w3.org/2000/svg" xmlns:xlink="http://www.w3.org/1999/xlink" x="0px" y="0px"
	 viewBox="0 0 170 34" style="enable-background:new 0 0 170 34;" xml:space="preserve">
<style type="text/css">
	.st0{fill:#93211F;}
	.st1{fill:#1C1C1C;}
</style>
<g>
	<g>
		<path class="st0" d="M17.5,17h-7.1L9,20.6H4.7L12,3.5h3.8l7.4,17.1h-4.3L17.5,17z M11.5,14.2h4.9l-2.5-6.4L11.5,14.2z"/>
		<path class="st0" d="M33.4,19.3c-1,1-2.3,1.5-4,1.5c-1.6,0-2.8-0.4-3.6-1.2c-0.8-0.8-1.2-1.9-1.3-3.4V7.9h3.9v8.2
			c0,1.3,0.7,2,2.1,2c1.3,0,2.2-0.4,2.7-1.2v-9h3.9v12.7h-3.7L33.4,19.3z"/>
		<path class="st0" d="M44.8,4.7v3.1h2.5v2.5h-2.5v6.3c0,0.5,0.1,0.8,0.3,1c0.2,0.2,0.6,0.3,1.2,0.3c0.4,0,0.8,0,1.1-0.1v2.6
			c-0.8,0.2-1.6,0.3-2.4,0.3c-2.7,0-4.1-1.2-4.2-3.6v-6.8h-2.1V7.9h2.1V4.7H44.8z"/>
		<path class="st0" d="M48.4,14.1c0-1.3,0.3-2.4,0.8-3.4c0.6-1,1.4-1.7,2.4-2.3c1-0.5,2.3-0.8,3.7-0.8c2,0,3.6,0.5,4.8,1.6
			c1.2,1,1.9,2.5,2.1,4.3l0,0.9c0,1.9-0.6,3.5-1.9,4.7c-1.3,1.2-2.9,1.8-5,1.8c-2.1,0-3.8-0.6-5-1.8c-1.3-1.2-1.9-2.8-1.9-4.8V14.1z
			 M52.3,14.3c0,1.2,0.3,2.1,0.8,2.8c0.5,0.6,1.3,1,2.2,1c0.9,0,1.7-0.3,2.2-0.9c0.5-0.6,0.8-1.6,0.8-3c0-1.2-0.3-2.1-0.8-2.8
			c-0.5-0.7-1.3-1-2.2-1c-1,0-1.7,0.3-2.2,1C52.6,12,52.3,13,52.3,14.3z"/>
		<path class="st0" d="M79.7,6.3h-6v14.2h-4.1V6.3h-5.9V3.5h16V6.3z"/>
		<path class="st0" d="M89.1,11c-0.5-0.1-1-0.1-1.4-0.1c-1.5,0-2.4,0.4-2.9,1.3v8.3h-3.9V7.9h3.7l0.1,1.5c0.8-1.2,1.9-1.7,3.3-1.7
			c0.4,0,0.8,0.1,1.2,0.2L89.1,11z"/>
		<path class="st0" d="M99.7,19.3c-1,1-2.3,1.5-4,1.5c-1.6,0-2.8-0.4-3.6-1.2c-0.8-0.8-1.2-1.9-1.3-3.4V7.9h3.9v8.2
			c0,1.3,0.7,2,2.1,2c1.3,0,2.2-0.4,2.7-1.2v-9h3.9v12.7h-3.7L99.7,19.3z"/>
		<path class="st0" d="M114.4,17.1c0-0.4-0.2-0.7-0.7-1s-1.2-0.5-2.3-0.6c-3.5-0.6-5.2-1.9-5.2-3.9c0-1.1,0.5-2.1,1.6-2.8
			s2.5-1.1,4.2-1.1c1.9,0,3.3,0.4,4.5,1.1s1.7,1.7,1.7,3h-3.9c0-0.5-0.2-0.9-0.5-1.2c-0.4-0.3-0.9-0.5-1.7-0.5
			c-0.7,0-1.2,0.1-1.5,0.4c-0.4,0.3-0.5,0.6-0.5,1c0,0.4,0.2,0.7,0.6,0.9c0.4,0.2,1.1,0.4,2.1,0.6c1,0.2,1.8,0.4,2.5,0.6
			c2.1,0.7,3.1,1.8,3.1,3.4c0,1.2-0.6,2.1-1.7,2.8c-1.1,0.7-2.6,1.1-4.4,1.1c-1.2,0-2.3-0.2-3.3-0.6c-1-0.4-1.7-0.9-2.2-1.6
			c-0.5-0.7-0.8-1.4-0.8-2.1h3.7c0,0.6,0.3,1.1,0.8,1.4c0.5,0.3,1.1,0.5,1.9,0.5c0.7,0,1.3-0.1,1.7-0.4
			C114.2,17.8,114.4,17.5,114.4,17.1z"/>
		<path class="st0" d="M125.4,4.7v3.1h2.5v2.5h-2.5v6.3c0,0.5,0.1,0.8,0.3,1c0.2,0.2,0.6,0.3,1.2,0.3c0.4,0,0.8,0,1.1-0.1v2.6
			c-0.8,0.2-1.6,0.3-2.4,0.3c-2.7,0-4.1-1.2-4.2-3.6v-6.8h-2.1V7.9h2.1V4.7H125.4z"/>
		<path class="st0" d="M134.4,14.5v6h-4.1V3.5h7.7c1.5,0,2.8,0.2,3.9,0.7s2,1.1,2.6,2c0.6,0.9,0.9,1.8,0.9,3c0,1.7-0.7,3-2,4
			c-1.3,1-3.1,1.5-5.5,1.5H134.4z M134.4,11.7h3.6c1.1,0,1.9-0.2,2.5-0.7c0.6-0.4,0.8-1.1,0.8-1.9c0-0.8-0.3-1.5-0.9-2
			c-0.6-0.5-1.4-0.8-2.3-0.8h-3.7V11.7z"/>
		<path class="st0" d="M164.1,20.6h-4.1v-7.3h-7.9v7.3h-4.1V3.5h4.1v6.9h7.9V3.5h4.1V20.6z"/>
	</g>
	<g>
		<path class="st1" d="M4.7,31.6v-6.4h1.9c0.6,0,1.1,0.1,1.5,0.4c0.4,0.3,0.8,0.6,1,1.1c0.2,0.5,0.4,1,0.4,1.6v0.3
			c0,0.6-0.1,1.1-0.4,1.6c-0.2,0.5-0.6,0.8-1,1.1c-0.4,0.2-1,0.4-1.5,0.4H4.7z M5.8,26.1v4.6h0.7c0.6,0,1-0.2,1.3-0.5
			s0.5-0.9,0.5-1.6v-0.4c0-0.7-0.2-1.2-0.5-1.6c-0.3-0.4-0.7-0.5-1.3-0.5H5.8z"/>
		<path class="st1" d="M13.5,27.8c-0.1,0-0.3,0-0.4,0c-0.5,0-0.8,0.2-1,0.6v3.3H11v-4.8h1l0,0.5c0.3-0.4,0.6-0.6,1.1-0.6
			c0.2,0,0.3,0,0.4,0.1L13.5,27.8z"/>
		<path class="st1" d="M14.7,25.6c0-0.2,0.1-0.3,0.2-0.4c0.1-0.1,0.3-0.2,0.4-0.2c0.2,0,0.3,0.1,0.4,0.2s0.2,0.2,0.2,0.4
			c0,0.2-0.1,0.3-0.2,0.4c-0.1,0.1-0.3,0.2-0.4,0.2c-0.2,0-0.3-0.1-0.4-0.2C14.8,25.9,14.7,25.7,14.7,25.6z M15.9,31.6h-1.1v-4.8
			h1.1V31.6z"/>
		<path class="st1" d="M19.2,30.2l1-3.4h1.1l-1.6,4.8h-0.9l-1.7-4.8h1.1L19.2,30.2z"/>
		<path class="st1" d="M24.6,31.7c-0.7,0-1.2-0.2-1.6-0.6c-0.4-0.4-0.6-1-0.6-1.7v-0.1c0-0.5,0.1-0.9,0.3-1.3
			c0.2-0.4,0.4-0.7,0.8-0.9c0.3-0.2,0.7-0.3,1.1-0.3c0.6,0,1.1,0.2,1.5,0.6c0.4,0.4,0.5,1,0.5,1.8v0.4h-3.1c0,0.4,0.2,0.7,0.4,0.9
			s0.5,0.3,0.9,0.3c0.5,0,0.9-0.2,1.2-0.6l0.6,0.5c-0.2,0.3-0.4,0.5-0.8,0.7C25.3,31.6,25,31.7,24.6,31.7z M24.5,27.6
			c-0.3,0-0.5,0.1-0.7,0.3s-0.3,0.5-0.3,0.9h2v-0.1c0-0.4-0.1-0.6-0.3-0.8C25,27.7,24.8,27.6,24.5,27.6z"/>
		<path class="st1" d="M30.5,30.3c0-0.2-0.1-0.3-0.2-0.4s-0.4-0.2-0.8-0.3c-0.4-0.1-0.7-0.2-0.9-0.3c-0.5-0.3-0.8-0.6-0.8-1.1
			c0-0.4,0.2-0.8,0.5-1c0.3-0.3,0.8-0.4,1.3-0.4c0.6,0,1,0.1,1.4,0.4c0.4,0.3,0.5,0.6,0.5,1.1h-1.1c0-0.2-0.1-0.4-0.2-0.5
			c-0.2-0.1-0.4-0.2-0.6-0.2c-0.2,0-0.4,0.1-0.6,0.2s-0.2,0.3-0.2,0.4c0,0.2,0.1,0.3,0.2,0.4c0.1,0.1,0.4,0.2,0.8,0.3
			c0.4,0.1,0.7,0.2,1,0.3c0.2,0.1,0.4,0.3,0.5,0.5c0.1,0.2,0.2,0.4,0.2,0.6c0,0.4-0.2,0.8-0.5,1c-0.4,0.3-0.8,0.4-1.4,0.4
			c-0.4,0-0.7-0.1-1-0.2s-0.5-0.3-0.7-0.6c-0.2-0.2-0.3-0.5-0.3-0.8h1c0,0.3,0.1,0.4,0.3,0.6c0.2,0.1,0.4,0.2,0.7,0.2
			c0.3,0,0.5-0.1,0.6-0.2C30.5,30.6,30.5,30.4,30.5,30.3z"/>
		<path class="st1" d="M38,28.2l1.5-3h1.2l-2.1,4v2.4h-1.1v-2.4l-2.1-4h1.2L38,28.2z"/>
		<path class="st1" d="M41.4,29.1c0-0.5,0.1-0.9,0.3-1.3s0.4-0.7,0.8-0.9c0.3-0.2,0.7-0.3,1.2-0.3c0.6,0,1.2,0.2,1.6,0.6
			c0.4,0.4,0.6,1,0.6,1.6l0,0.3c0,0.5-0.1,0.9-0.3,1.3s-0.4,0.7-0.8,0.9c-0.3,0.2-0.7,0.3-1.2,0.3c-0.7,0-1.2-0.2-1.6-0.7
			S41.4,29.9,41.4,29.1L41.4,29.1z M42.4,29.2c0,0.5,0.1,0.9,0.3,1.1c0.2,0.3,0.5,0.4,0.8,0.4c0.4,0,0.6-0.1,0.8-0.4
			c0.2-0.3,0.3-0.7,0.3-1.2c0-0.5-0.1-0.9-0.3-1.1c-0.2-0.3-0.5-0.4-0.8-0.4c-0.3,0-0.6,0.1-0.8,0.4C42.5,28.3,42.4,28.7,42.4,29.2z
			"/>
		<path class="st1" d="M50.1,31.1c-0.3,0.4-0.8,0.6-1.3,0.6c-0.5,0-0.9-0.2-1.2-0.5s-0.4-0.7-0.4-1.3v-3.1h1.1v3.1
			c0,0.6,0.3,0.9,0.8,0.9c0.5,0,0.9-0.2,1-0.6v-3.4h1.1v4.8h-1L50.1,31.1z"/>
		<path class="st1" d="M56.9,25.7v1.2h0.8v0.8h-0.8v2.7c0,0.2,0,0.3,0.1,0.4c0.1,0.1,0.2,0.1,0.4,0.1c0.1,0,0.2,0,0.4,0v0.8
			c-0.2,0.1-0.5,0.1-0.7,0.1c-0.8,0-1.2-0.5-1.2-1.4v-2.7H55v-0.8h0.8v-1.2H56.9z"/>
		<path class="st1" d="M58.7,29.1c0-0.5,0.1-0.9,0.3-1.3s0.4-0.7,0.8-0.9c0.3-0.2,0.7-0.3,1.2-0.3c0.6,0,1.2,0.2,1.6,0.6
			c0.4,0.4,0.6,1,0.6,1.6l0,0.3c0,0.5-0.1,0.9-0.3,1.3s-0.4,0.7-0.8,0.9c-0.3,0.2-0.7,0.3-1.2,0.3c-0.7,0-1.2-0.2-1.6-0.7
			S58.7,29.9,58.7,29.1L58.7,29.1z M59.8,29.2c0,0.5,0.1,0.9,0.3,1.1c0.2,0.3,0.5,0.4,0.8,0.4c0.4,0,0.6-0.1,0.8-0.4
			c0.2-0.3,0.3-0.7,0.3-1.2c0-0.5-0.1-0.9-0.3-1.1c-0.2-0.3-0.5-0.4-0.8-0.4c-0.3,0-0.6,0.1-0.8,0.4C59.9,28.3,59.8,28.7,59.8,29.2z
			"/>
		<path class="st1" d="M70.2,31.6c0-0.1-0.1-0.2-0.1-0.4c-0.3,0.4-0.8,0.5-1.2,0.5c-0.5,0-0.9-0.1-1.2-0.4c-0.3-0.3-0.5-0.6-0.5-1
			c0-0.5,0.2-0.9,0.6-1.2c0.4-0.3,0.9-0.4,1.6-0.4h0.7v-0.3c0-0.2-0.1-0.4-0.2-0.6c-0.1-0.1-0.3-0.2-0.6-0.2c-0.2,0-0.4,0.1-0.6,0.2
			c-0.2,0.1-0.2,0.3-0.2,0.5h-1.1c0-0.3,0.1-0.5,0.3-0.7c0.2-0.2,0.4-0.4,0.7-0.5c0.3-0.1,0.6-0.2,1-0.2c0.6,0,1,0.1,1.3,0.4
			c0.3,0.3,0.5,0.7,0.5,1.2v2.1c0,0.4,0.1,0.8,0.2,1v0.1H70.2z M69,30.8c0.2,0,0.4-0.1,0.6-0.2c0.2-0.1,0.3-0.2,0.4-0.4v-0.9h-0.6
			c-0.4,0-0.7,0.1-0.9,0.2c-0.2,0.1-0.3,0.3-0.3,0.6c0,0.2,0.1,0.4,0.2,0.5C68.6,30.7,68.8,30.8,69,30.8z"/>
		<path class="st1" d="M78,29.1h-1.2v2.5h-1.1v-6.4h2.2c0.7,0,1.3,0.2,1.7,0.5c0.4,0.3,0.6,0.8,0.6,1.4c0,0.4-0.1,0.8-0.3,1.1
			c-0.2,0.3-0.5,0.5-0.9,0.7l1.4,2.7v0.1h-1.2L78,29.1z M76.8,28.2h1.1c0.4,0,0.7-0.1,0.9-0.3c0.2-0.2,0.3-0.4,0.3-0.8
			c0-0.3-0.1-0.6-0.3-0.8s-0.5-0.3-0.9-0.3h-1.2V28.2z"/>
		<path class="st1" d="M83.8,31.7c-0.7,0-1.2-0.2-1.6-0.6c-0.4-0.4-0.6-1-0.6-1.7v-0.1c0-0.5,0.1-0.9,0.3-1.3
			c0.2-0.4,0.4-0.7,0.8-0.9c0.3-0.2,0.7-0.3,1.1-0.3c0.6,0,1.1,0.2,1.5,0.6c0.4,0.4,0.5,1,0.5,1.8v0.4h-3.1c0,0.4,0.2,0.7,0.4,0.9
			s0.5,0.3,0.9,0.3c0.5,0,0.9-0.2,1.2-0.6l0.6,0.5c-0.2,0.3-0.4,0.5-0.8,0.7C84.6,31.6,84.2,31.7,83.8,31.7z M83.7,27.6
			c-0.3,0-0.5,0.1-0.7,0.3s-0.3,0.5-0.3,0.9h2v-0.1c0-0.4-0.1-0.6-0.3-0.8C84.2,27.7,84,27.6,83.7,27.6z"/>
		<path class="st1" d="M88.2,31.6h-1.1v-6.7h1.1V31.6z"/>
		<path class="st1" d="M89.9,25.6c0-0.2,0.1-0.3,0.2-0.4c0.1-0.1,0.3-0.2,0.4-0.2s0.3,0.1,0.4,0.2s0.2,0.2,0.2,0.4
			c0,0.2-0.1,0.3-0.2,0.4c-0.1,0.1-0.3,0.2-0.4,0.2s-0.3-0.1-0.4-0.2C90,25.9,89.9,25.7,89.9,25.6z M91,31.6H90v-4.8H91V31.6z"/>
		<path class="st1" d="M95.6,31.6c0-0.1-0.1-0.2-0.1-0.4c-0.3,0.4-0.8,0.5-1.2,0.5c-0.5,0-0.9-0.1-1.2-0.4s-0.5-0.6-0.5-1
			c0-0.5,0.2-0.9,0.6-1.2c0.4-0.3,0.9-0.4,1.6-0.4h0.7v-0.3c0-0.2-0.1-0.4-0.2-0.6c-0.1-0.1-0.3-0.2-0.6-0.2c-0.2,0-0.4,0.1-0.6,0.2
			s-0.2,0.3-0.2,0.5h-1.1c0-0.3,0.1-0.5,0.3-0.7c0.2-0.2,0.4-0.4,0.7-0.5s0.6-0.2,1-0.2c0.6,0,1,0.1,1.3,0.4s0.5,0.7,0.5,1.2v2.1
			c0,0.4,0.1,0.8,0.2,1v0.1H95.6z M94.4,30.8c0.2,0,0.4-0.1,0.6-0.2c0.2-0.1,0.3-0.2,0.4-0.4v-0.9h-0.6c-0.4,0-0.7,0.1-0.9,0.2
			s-0.3,0.3-0.3,0.6c0,0.2,0.1,0.4,0.2,0.5C94,30.7,94.2,30.8,94.4,30.8z"/>
		<path class="st1" d="M102.3,29.2c0,0.7-0.2,1.3-0.5,1.8c-0.3,0.4-0.8,0.7-1.4,0.7c-0.6,0-1-0.2-1.3-0.6l-0.1,0.5h-1v-6.7h1.1v2.5
			c0.3-0.4,0.7-0.5,1.2-0.5c0.6,0,1,0.2,1.4,0.6C102.2,27.8,102.3,28.4,102.3,29.2L102.3,29.2z M101.3,29.1c0-0.5-0.1-0.9-0.3-1.2
			s-0.4-0.4-0.8-0.4c-0.5,0-0.8,0.2-1,0.6v2c0.2,0.4,0.5,0.6,1,0.6c0.3,0,0.6-0.1,0.8-0.4c0.2-0.2,0.3-0.6,0.3-1.1V29.1z"/>
		<path class="st1" d="M104.9,31.6h-1.1v-6.7h1.1V31.6z"/>
		<path class="st1" d="M108.7,31.7c-0.7,0-1.2-0.2-1.6-0.6c-0.4-0.4-0.6-1-0.6-1.7v-0.1c0-0.5,0.1-0.9,0.3-1.3
			c0.2-0.4,0.4-0.7,0.8-0.9c0.3-0.2,0.7-0.3,1.1-0.3c0.6,0,1.1,0.2,1.5,0.6c0.4,0.4,0.5,1,0.5,1.8v0.4h-3.1c0,0.4,0.2,0.7,0.4,0.9
			c0.2,0.2,0.5,0.3,0.9,0.3c0.5,0,0.9-0.2,1.2-0.6l0.6,0.5c-0.2,0.3-0.4,0.5-0.8,0.7C109.4,31.6,109.1,31.7,108.7,31.7z M108.6,27.6
			c-0.3,0-0.5,0.1-0.7,0.3s-0.3,0.5-0.3,0.9h2v-0.1c0-0.4-0.1-0.6-0.3-0.8C109.1,27.7,108.9,27.6,108.6,27.6z"/>
		<path class="st1" d="M119.7,29.5c-0.1,0.7-0.3,1.2-0.8,1.6s-1,0.6-1.8,0.6c-0.5,0-1-0.1-1.3-0.4c-0.4-0.2-0.7-0.6-0.9-1
			c-0.2-0.4-0.3-1-0.3-1.5v-0.6c0-0.6,0.1-1.1,0.3-1.6s0.5-0.8,0.9-1.1s0.9-0.4,1.4-0.4c0.7,0,1.3,0.2,1.7,0.6
			c0.4,0.4,0.7,0.9,0.8,1.6h-1.1c-0.1-0.5-0.2-0.8-0.4-1c-0.2-0.2-0.5-0.3-0.9-0.3c-0.5,0-0.9,0.2-1.1,0.5c-0.3,0.4-0.4,0.9-0.4,1.6
			v0.6c0,0.7,0.1,1.2,0.4,1.6c0.2,0.4,0.6,0.5,1.1,0.5c0.4,0,0.8-0.1,1-0.3s0.4-0.5,0.4-1H119.7z"/>
		<path class="st1" d="M121,29.1c0-0.5,0.1-0.9,0.3-1.3c0.2-0.4,0.4-0.7,0.8-0.9c0.3-0.2,0.7-0.3,1.2-0.3c0.6,0,1.2,0.2,1.6,0.6
			c0.4,0.4,0.6,1,0.6,1.6l0,0.3c0,0.5-0.1,0.9-0.3,1.3c-0.2,0.4-0.4,0.7-0.8,0.9s-0.7,0.3-1.2,0.3c-0.7,0-1.2-0.2-1.6-0.7
			C121.2,30.5,121,29.9,121,29.1L121,29.1z M122,29.2c0,0.5,0.1,0.9,0.3,1.1c0.2,0.3,0.5,0.4,0.8,0.4c0.4,0,0.6-0.1,0.8-0.4
			c0.2-0.3,0.3-0.7,0.3-1.2c0-0.5-0.1-0.9-0.3-1.1c-0.2-0.3-0.5-0.4-0.8-0.4c-0.3,0-0.6,0.1-0.8,0.4C122.1,28.3,122,28.7,122,29.2z"
			/>
		<path class="st1" d="M127.8,26.8l0,0.5c0.3-0.4,0.8-0.6,1.4-0.6c0.6,0,1.1,0.2,1.3,0.7c0.3-0.5,0.8-0.7,1.5-0.7
			c0.5,0,0.9,0.1,1.2,0.4c0.3,0.3,0.4,0.7,0.4,1.3v3.1h-1.1v-3.1c0-0.3-0.1-0.5-0.2-0.7s-0.3-0.2-0.7-0.2c-0.2,0-0.4,0.1-0.6,0.2
			c-0.2,0.1-0.3,0.3-0.3,0.5l0,3.3h-1.1v-3.1c0-0.6-0.3-0.8-0.9-0.8c-0.4,0-0.7,0.2-0.9,0.5v3.4h-1.1v-4.8H127.8z"/>
		<path class="st1" d="M139.3,29.2c0,0.7-0.2,1.3-0.5,1.8s-0.8,0.7-1.3,0.7c-0.5,0-0.9-0.2-1.3-0.5v2.3h-1.1v-6.6h1l0,0.5
			c0.3-0.4,0.7-0.6,1.3-0.6c0.6,0,1,0.2,1.4,0.6C139.2,27.8,139.3,28.4,139.3,29.2L139.3,29.2z M138.3,29.1c0-0.5-0.1-0.9-0.3-1.1
			c-0.2-0.3-0.5-0.4-0.8-0.4c-0.4,0-0.8,0.2-0.9,0.5v2.1c0.2,0.4,0.5,0.6,0.9,0.6c0.3,0,0.6-0.1,0.8-0.4
			C138.2,30.1,138.3,29.7,138.3,29.1z"/>
		<path class="st1" d="M143.6,31.6c0-0.1-0.1-0.2-0.1-0.4c-0.3,0.4-0.8,0.5-1.2,0.5c-0.5,0-0.9-0.1-1.2-0.4s-0.5-0.6-0.5-1
			c0-0.5,0.2-0.9,0.6-1.2c0.4-0.3,0.9-0.4,1.6-0.4h0.7v-0.3c0-0.2-0.1-0.4-0.2-0.6c-0.1-0.1-0.3-0.2-0.6-0.2c-0.2,0-0.4,0.1-0.6,0.2
			s-0.2,0.3-0.2,0.5h-1.1c0-0.3,0.1-0.5,0.3-0.7c0.2-0.2,0.4-0.4,0.7-0.5s0.6-0.2,1-0.2c0.6,0,1,0.1,1.3,0.4s0.5,0.7,0.5,1.2v2.1
			c0,0.4,0.1,0.8,0.2,1v0.1H143.6z M142.4,30.8c0.2,0,0.4-0.1,0.6-0.2c0.2-0.1,0.3-0.2,0.4-0.4v-0.9h-0.6c-0.4,0-0.7,0.1-0.9,0.2
			s-0.3,0.3-0.3,0.6c0,0.2,0.1,0.4,0.2,0.5C142,30.7,142.2,30.8,142.4,30.8z"/>
		<path class="st1" d="M147.2,26.8l0,0.5c0.4-0.4,0.8-0.6,1.4-0.6c1,0,1.5,0.6,1.5,1.7v3.1H149v-3.1c0-0.3-0.1-0.5-0.2-0.7
			s-0.3-0.2-0.6-0.2c-0.4,0-0.8,0.2-1,0.6v3.4h-1.1v-4.8H147.2z"/>
		<path class="st1" d="M151.7,25.6c0-0.2,0.1-0.3,0.2-0.4c0.1-0.1,0.3-0.2,0.4-0.2s0.3,0.1,0.4,0.2s0.2,0.2,0.2,0.4
			c0,0.2-0.1,0.3-0.2,0.4c-0.1,0.1-0.3,0.2-0.4,0.2s-0.3-0.1-0.4-0.2C151.8,25.9,151.7,25.7,151.7,25.6z M152.9,31.6h-1.1v-4.8h1.1
			V31.6z"/>
		<path class="st1" d="M154.4,29.1c0-0.5,0.1-0.9,0.3-1.3c0.2-0.4,0.4-0.7,0.8-0.9c0.3-0.2,0.7-0.3,1.2-0.3c0.6,0,1.2,0.2,1.6,0.6
			c0.4,0.4,0.6,1,0.6,1.6l0,0.3c0,0.5-0.1,0.9-0.3,1.3c-0.2,0.4-0.4,0.7-0.8,0.9s-0.7,0.3-1.2,0.3c-0.7,0-1.2-0.2-1.6-0.7
			C154.6,30.5,154.4,29.9,154.4,29.1L154.4,29.1z M155.4,29.2c0,0.5,0.1,0.9,0.3,1.1c0.2,0.3,0.5,0.4,0.8,0.4c0.4,0,0.6-0.1,0.8-0.4
			c0.2-0.3,0.3-0.7,0.3-1.2c0-0.5-0.1-0.9-0.3-1.1c-0.2-0.3-0.5-0.4-0.8-0.4c-0.3,0-0.6,0.1-0.8,0.4
			C155.5,28.3,155.4,28.7,155.4,29.2z"/>
		<path class="st1" d="M161.2,26.8l0,0.5c0.4-0.4,0.8-0.6,1.4-0.6c1,0,1.5,0.6,1.5,1.7v3.1h-1.1v-3.1c0-0.3-0.1-0.5-0.2-0.7
			s-0.3-0.2-0.6-0.2c-0.4,0-0.8,0.2-1,0.6v3.4h-1.1v-4.8H161.2z"/>
	</g>
</g>
</svg>
