<?xml version="1.0" encoding="utf-8"?>
<!-- Generator: Adobe Illustrator 24.0.1, SVG Export Plug-In . SVG Version: 6.00 Build 0)  -->
<svg version="1.1" id="Layer_1" xmlns="http://www.w3.org/2000/svg" xmlns:xlink="http://www.w3.org/1999/xlink" x="0px" y="0px"
	 viewBox="0 0 139 34" style="enable-background:new 0 0 139 34;" xml:space="preserve">
<style type="text/css">
	.st0{fill:url(#SVGID_1_);}
	.st1{fill:url(#SVGID_2_);}
	.st2{fill:url(#SVGID_3_);}
	.st3{fill:url(#SVGID_4_);}
</style>
<g>
	<linearGradient id="SVGID_1_" gradientUnits="userSpaceOnUse" x1="9.2564" y1="10.0517" x2="122.464" y2="26.4239">
		<stop  offset="1.953869e-07" style="stop-color:#324B8A"/>
		<stop  offset="1.470565e-02" style="stop-color:#314E88"/>
		<stop  offset="3.916856e-02" style="stop-color:#2F5782"/>
		<stop  offset="7.037470e-02" style="stop-color:#2C6376"/>
		<stop  offset="0.1067" style="stop-color:#297262"/>
		<stop  offset="0.1382" style="stop-color:#288149"/>
		<stop  offset="0.3309" style="stop-color:#C4D245"/>
		<stop  offset="0.4749" style="stop-color:#E1E343"/>
		<stop  offset="0.5427" style="stop-color:#E1D43E"/>
		<stop  offset="0.6817" style="stop-color:#E1B231"/>
		<stop  offset="0.8317" style="stop-color:#E18926"/>
		<stop  offset="0.9944" style="stop-color:#B12224"/>
	</linearGradient>
	<path class="st0" d="M105,16c0-0.5-0.2-0.9-0.5-1.2c-0.1-0.1-0.1-0.1-0.2-0.2c-2.9-2.9-6.4-5.5-7.7-6.4l0,0C96.5,8.1,96.4,8,96.2,8
		C91,6.8,85.9,5.8,80.8,5.6c-3.1-0.1-6.5-0.1-10.4,0.3c-0.6,0-1,0.5-1,1.1c0,0.6,0,1.1,0,1.7c0,0.6,0,1.3,0,1.9
		c-0.1,3.1-0.5,6.4-1.2,9.8c-0.9,4.3-3.4,9.3-5.2,12.5h16.6c2.4-3.9,6.7-6.4,11.6-6.4c0.9,0,1.8,0.1,2.7,0.3l1-0.2
		c6.8-1.3,8-2.5,9.2-4.8C104.8,20.4,105,17.9,105,16z M95.5,16.6H76V9.8c0-0.3,0.2-0.5,0.5-0.5c14.4,0.2,18.7,3.5,20,5.6
		C97,15.6,96.4,16.6,95.5,16.6z"/>
	<linearGradient id="SVGID_2_" gradientUnits="userSpaceOnUse" x1="8.7897" y1="16.3413" x2="121.9984" y2="32.7136">
		<stop  offset="1.953869e-07" style="stop-color:#324B8A"/>
		<stop  offset="1.470565e-02" style="stop-color:#314E88"/>
		<stop  offset="3.916856e-02" style="stop-color:#2F5782"/>
		<stop  offset="7.037470e-02" style="stop-color:#2C6376"/>
		<stop  offset="0.1067" style="stop-color:#297262"/>
		<stop  offset="0.1382" style="stop-color:#288149"/>
		<stop  offset="0.3309" style="stop-color:#C4D245"/>
		<stop  offset="0.4749" style="stop-color:#E1E343"/>
		<stop  offset="0.5427" style="stop-color:#E1D43E"/>
		<stop  offset="0.6817" style="stop-color:#E1B231"/>
		<stop  offset="0.8317" style="stop-color:#E18926"/>
		<stop  offset="0.9944" style="stop-color:#B12224"/>
	</linearGradient>
	<path class="st1" d="M58.5,6.4c-0.1-0.1-0.1-0.2-0.2-0.3c-0.2-0.1-0.4-0.1-0.6-0.2c-0.4,0-0.7-0.1-1.1-0.1c-0.6,0-1.2,0-1.7,0
		c-0.6,0-1.2,0-1.8,0c-0.6,0-1.2,0-1.8,0.1c-0.6,0-1.2,0.1-1.8,0.1c-0.6,0.1-1.2,0.1-1.7,0.2c-0.6,0.1-1.1,0.1-1.7,0.2
		c-0.6,0.1-1.1,0.2-1.7,0.3c-0.5,0.1-1.1,0.2-1.6,0.3c-0.5,0.1-1.1,0.2-1.6,0.3c-0.5,0.1-1,0.2-1.5,0.3c-0.5,0.1-1,0.2-1.4,0.3
		c-0.5,0.1-0.9,0.2-1.4,0.3c-0.4,0.1-0.8,0.2-1.3,0.3c-0.4,0.1-0.8,0.2-1.2,0.3c-0.4,0.1-0.7,0.2-1.1,0.3c-0.3,0.1-0.6,0.2-0.9,0.3
		c-0.3,0.1-0.5,0.2-0.8,0.2c-0.1,0-0.1,0-0.2,0.1c-0.1,0-0.1,0-0.2,0.1c-1.2,0.8-2.3,1.8-3.5,2.6c-3.2,2.2-6.4,4.3-10.1,5.6
		c-0.9,0.3-1.7,0.6-2.6,0.9c-2.5,0.8-5.1,1.1-7.7,1.7c-1,0.2-1.9,0.7-2.4,1.6c-0.4,0.7-0.3,1.5-0.3,2.3c-0.1,0.8-0.2,1.5-0.4,2.3
		c-0.3,1.5-0.9,3-1.9,4.2c-0.7,0.9,0,2,0,2h18.5c2.4-3.9,6.7-6.4,11.6-6.4c4.9,0,9.2,2.6,11.6,6.4h7.6c1.5-4.1,3.4-9,4.5-12.2
		c2.1-6,2.3-10.9,2.3-11c0,0,0,0,0,0c0.1-0.7,0.1-1.5,0.1-2.2c0-0.2,0-0.3,0-0.5C58.6,6.8,58.6,6.6,58.5,6.4z M50.7,16.1
		c-0.2,0.2-0.4,0.3-0.7,0.3l-19.7,0c-0.2,0-0.3-0.2-0.1-0.3c1.4-1.5,8.2-7.6,21.2-6.4c0.3,0,0.5,0.3,0.5,0.6
		C51.8,11.5,51.6,14.9,50.7,16.1z"/>
	<linearGradient id="SVGID_3_" gradientUnits="userSpaceOnUse" x1="9.9403" y1="9.2343" x2="122.127" y2="25.4589">
		<stop  offset="1.953869e-07" style="stop-color:#324B8A"/>
		<stop  offset="1.470565e-02" style="stop-color:#314E88"/>
		<stop  offset="3.916856e-02" style="stop-color:#2F5782"/>
		<stop  offset="7.037470e-02" style="stop-color:#2C6376"/>
		<stop  offset="0.1067" style="stop-color:#297262"/>
		<stop  offset="0.1382" style="stop-color:#288149"/>
		<stop  offset="0.3309" style="stop-color:#C4D245"/>
		<stop  offset="0.4749" style="stop-color:#E1E343"/>
		<stop  offset="0.5427" style="stop-color:#E1D43E"/>
		<stop  offset="0.6817" style="stop-color:#E1B231"/>
		<stop  offset="0.8317" style="stop-color:#E18926"/>
		<stop  offset="0.9944" style="stop-color:#B12224"/>
	</linearGradient>
	<path class="st2" d="M90.3,4.7c-3.1-0.6-6.2-1-9.4-1.1C77.3,3.4,73.4,3.6,69,4c-0.8,0.1-1.4,0.7-1.5,1.5c-0.1,1.1-0.1,2.2-0.1,3.2
		c0,0.6,0,1.3,0,1.9c-0.1,3-0.5,6.2-1.2,9.5c-0.9,4.5-3.8,10-5.5,12.9h-6.8c1.5-3.9,3.2-8.6,4.2-11.6c2.2-6.2,2.4-11.1,2.4-11.5
		c0.2-2.1,0.1-3.5-0.2-4.3c-0.1-0.3-0.3-0.6-0.5-0.8c0,0,0,0,0,0c0,0-0.1-0.1-0.2-0.1c0,0,0,0,0,0C59.3,4.2,58.8,4,58.4,4
		c-6.8-0.6-14.3,0.7-19.5,1.8C38,6,37.1,6.2,36.2,6.4c2.1-1.1,5.9-2.6,8.3-3.2c3.9-0.9,7.9-1.7,11.9-1.9c4-0.2,8.1-0.3,12.2-0.1
		c2.3,0.1,4.7,0.2,7,0.4c2.6,0.2,5.2,0.4,7.7,1C85,2.9,86.7,3.4,88.4,4C89.1,4.3,89.7,4.5,90.3,4.7z"/>
	<linearGradient id="SVGID_4_" gradientUnits="userSpaceOnUse" x1="10.5784" y1="11.2691" x2="122.2623" y2="27.4209">
		<stop  offset="1.953869e-07" style="stop-color:#324B8A"/>
		<stop  offset="1.470565e-02" style="stop-color:#314E88"/>
		<stop  offset="3.916856e-02" style="stop-color:#2F5782"/>
		<stop  offset="7.037470e-02" style="stop-color:#2C6376"/>
		<stop  offset="0.1067" style="stop-color:#297262"/>
		<stop  offset="0.1382" style="stop-color:#288149"/>
		<stop  offset="0.3309" style="stop-color:#C4D245"/>
		<stop  offset="0.4749" style="stop-color:#E1E343"/>
		<stop  offset="0.5427" style="stop-color:#E1D43E"/>
		<stop  offset="0.6817" style="stop-color:#E1B231"/>
		<stop  offset="0.8317" style="stop-color:#E18926"/>
		<stop  offset="0.9944" style="stop-color:#B12224"/>
	</linearGradient>
	<path class="st3" d="M137,32.9h-34.2c-1.3-2.1-3.1-3.7-5.3-4.9c5.4-1.3,6.9-2.7,8.3-5.3c0.2-0.4,0.4-0.9,0.6-1.5
		c0.1-0.2,0.1-0.5,0.2-0.7c0-0.1,0-0.2,0.1-0.3c0,0,0,0,0,0c0.2-1.1,0.3-2.3,0.3-3.3c0.7,0.5,6,4.3,11.9,6c0,0,4,1.4,8.6,2.3
		c0,0,5.1,1,8.1,4.4C135.6,29.7,137.2,31.7,137,32.9z"/>
</g>
</svg>
